<svg width="345" height="56" xmlns="http://www.w3.org/2000/svg">
 <style>tspan { white-space:pre }
		.shp0 { fill: #0fd559 }</style>

 <g>
  <title>background</title>
  <rect fill="none" id="canvas_background" height="402" width="582" y="-1" x="-1"/>
 </g>
 <g>
  <title>Layer 1</title>
  <path stroke="null" d="m-0.999993,55.994937l346.000001,0l0,-18.325616l-346.000001,0l0,18.325616zm1.906531,-28.669408c-1.049096,0 -1.906531,4.632308 -1.906531,10.343792c0,5.711484 0.847347,10.343792 1.906531,10.343792c1.049096,0 1.906531,-4.632308 1.906531,-10.343792c0,-5.711484 -0.847347,-10.343792 -1.906531,-10.343792zm3.802974,0c-1.049096,0 -1.906531,4.632308 -1.906531,10.343792c0,5.711484 0.847347,10.343792 1.906531,10.343792c1.049096,0 1.906531,-4.632308 1.906531,-10.343792c0,-5.711484 -0.847347,-10.343792 -1.906531,-10.343792zm3.813061,4.530499c-1.049096,0 -1.906531,2.60631 -1.906531,5.813293c0,3.217164 0.847347,5.813293 1.906531,5.813293c1.049096,0 1.906531,-2.60631 1.906531,-5.813293c0,-3.217164 -0.847347,-5.813293 -1.906531,-5.813293zm10.954985,-0.498864c-0.817085,0 -1.503032,1.70021 -1.775394,4.08254c-0.302624,-1.852923 -0.958309,-3.135716 -1.724956,-3.135716c-0.79691,0 -1.47277,1.374421 -1.755219,3.329154c-0.0807,-12.003278 -0.897784,-21.43079 -1.896443,-21.43079c-1.049096,0 -1.906531,10.506686 -1.906531,23.466969c0,12.960283 0.847347,15.322251 1.906531,15.322251c0.998659,0 1.815743,-1.282793 1.896443,-13.286072c0.282449,1.954732 0.968397,3.329154 1.755219,3.329154c0.766647,0 1.422332,-1.292974 1.724956,-3.135716c0.272362,2.38233 0.958309,4.08254 1.775394,4.08254c1.049096,0 1.906531,-2.83029 1.906531,-6.312157c0,-3.492048 -0.847347,-6.312157 -1.906531,-6.312157zm7.616035,0c-1.049096,0 -1.906531,2.83029 -1.906531,6.312157c0,3.492048 0.847347,6.312157 1.906531,6.312157c1.049096,0 1.906531,-2.83029 1.906531,-6.312157c0,-3.492048 -0.847347,-6.312157 -1.906531,-6.312157zm3.813061,-3.094993c-1.049096,0 -1.906531,4.214892 -1.906531,9.407149c0,5.192258 0.847347,9.407149 1.906531,9.407149c1.049096,0 1.906531,-4.214892 1.906531,-9.407149c0,-5.192258 -0.857434,-9.407149 -1.906531,-9.407149zm1.896443,9.407149c0,13.438785 0.847347,16.177446 1.906531,16.177446c1.049096,0 1.906531,-2.748842 1.906531,-16.177446c0,-13.438785 -0.847347,-24.322165 -1.906531,-24.322165c-1.049096,0 -1.906531,10.893561 -1.906531,24.322165zm3.813061,0c0,10.598315 0.847347,11.046274 1.906531,11.046274c1.049096,0 1.906531,-0.447959 1.906531,-11.046274c0,-10.598315 -0.847347,-19.190992 -1.906531,-19.190992c-1.049096,0 -1.906531,8.592678 -1.906531,19.190992zm5.709504,-6.312157c-1.049096,0 -1.906531,2.83029 -1.906531,6.312157c0,3.492048 0.847347,6.312157 1.906531,6.312157c1.049096,0 1.906531,-2.83029 1.906531,-6.312157c0,-3.492048 -0.847347,-6.312157 -1.906531,-6.312157zm3.802974,-6.1289c-1.049096,0 -1.906531,5.568951 -1.906531,12.451238c0,6.872106 0.847347,12.451238 1.906531,12.451238c1.049096,0 1.906531,-5.568951 1.906531,-12.451238c0,-6.872106 -0.847347,-12.451238 -1.906531,-12.451238zm3.813061,3.471686c-1.049096,0 -1.906531,4.011274 -1.906531,8.969371c0,4.947916 0.847347,8.969371 1.906531,8.969371c1.049096,0 1.906531,-4.011274 1.906531,-8.969371c0,-4.947916 -0.857434,-8.969371 -1.906531,-8.969371zm3.802974,-5.467142c-1.049096,0 -1.906531,6.46487 -1.906531,14.436513c0,7.971643 0.847347,14.436513 1.906531,14.436513c1.049096,0 1.906531,-6.46487 1.906531,-14.436513c0,-7.971643 -0.847347,-14.436513 -1.906531,-14.436513zm3.813061,3.044088c-1.049096,0 -1.906531,5.10063 -1.906531,11.402605c0,6.291795 0.847347,11.402605 1.906531,11.402605c1.049096,0 1.906531,-5.10063 1.906531,-11.402605c0,-6.291795 -0.847347,-11.402605 -1.906531,-11.402605zm3.802974,5.518047c-1.049096,0 -1.906531,2.626672 -1.906531,5.874378c0,3.247706 0.847347,5.874378 1.906531,5.874378c1.049096,0 1.906531,-2.626672 1.906531,-5.874378c0,-3.247706 -0.847347,-5.874378 -1.906531,-5.874378zm3.802974,2.49432c-1.049096,0 -1.906531,1.516954 -1.906531,3.390239c0,1.873285 0.847347,3.390239 1.906531,3.390239c1.049096,0 1.906531,-1.516954 1.906531,-3.390239c0,-1.873285 -0.847347,-3.390239 -1.906531,-3.390239zm3.813061,-2.932099c-1.049096,0 -1.906531,2.83029 -1.906531,6.312157c0,3.492048 0.847347,6.312157 1.906531,6.312157c1.049096,0 1.906531,-2.83029 1.906531,-6.312157c0,-3.492048 -0.847347,-6.312157 -1.906531,-6.312157zm3.802974,3.145897c-1.049096,0 -1.906531,1.415145 -1.906531,3.166259c0,1.751114 0.847347,3.166259 1.906531,3.166259c1.049096,0 1.906531,-1.415145 1.906531,-3.166259c0,-1.751114 -0.847347,-3.166259 -1.906531,-3.166259zm3.813061,-7.238618c-1.049096,0 -1.906531,4.65267 -1.906531,10.404877c0,5.742026 0.847347,10.404877 1.906531,10.404877c1.049096,0 1.906531,-4.65267 1.906531,-10.404877c0,-5.742026 -0.847347,-10.404877 -1.906531,-10.404877zm3.802974,4.092721c-1.049096,0 -1.906531,2.83029 -1.906531,6.312157c0,3.492048 0.847347,6.312157 1.906531,6.312157c1.049096,0 1.906531,-2.83029 1.906531,-6.312157c0,-3.492048 -0.847347,-6.312157 -1.906531,-6.312157zm3.813061,-1.690029c-1.049096,0 -1.906531,3.583676 -1.906531,8.002186c0,4.41851 0.847347,8.002186 1.906531,8.002186c1.049096,0 1.906531,-3.583676 1.906531,-8.002186c0,-4.41851 -0.847347,-8.002186 -1.906531,-8.002186zm3.802974,-1.404964c-1.049096,0 -1.906531,4.214892 -1.906531,9.407149c0,5.192258 0.847347,9.407149 1.906531,9.407149c1.049096,0 1.906531,-4.214892 1.906531,-9.407149c0,-5.192258 -0.847347,-9.407149 -1.906531,-9.407149zm3.802974,-4.30652c-1.049096,0 -1.906531,6.139081 -1.906531,13.713669c0,7.574588 0.847347,13.713669 1.906531,13.713669c1.049096,0 1.906531,-6.139081 1.906531,-13.713669c0,-7.574588 -0.847347,-13.713669 -1.906531,-13.713669zm3.813061,3.756751c-1.049096,0 -1.906531,4.459233 -1.906531,9.956918c0,5.497685 0.847347,9.956918 1.906531,9.956918c1.049096,0 1.906531,-4.459233 1.906531,-9.956918c0,-5.497685 -0.857434,-9.956918 -1.906531,-9.956918zm3.802974,-4.204711c-1.049096,0 -1.906531,6.342699 -1.906531,14.161629c0,7.818929 0.857434,14.161629 1.906531,14.161629c1.049096,0 1.906531,-6.342699 1.906531,-14.161629c0,-7.818929 -0.847347,-14.161629 -1.906531,-14.161629zm3.813061,8.399241c-1.049096,0 -1.906531,2.575767 -1.906531,5.762388c0,3.186621 0.847347,5.762388 1.906531,5.762388c1.049096,0 1.906531,-2.575767 1.906531,-5.762388c0,-3.186621 -0.847347,-5.762388 -1.906531,-5.762388zm3.802974,-3.206983c-1.049096,0 -1.906531,4.011274 -1.906531,8.969371c0,4.947916 0.847347,8.969371 1.906531,8.969371c1.049096,0 1.906531,-4.011274 1.906531,-8.969371c0,-4.947916 -0.847347,-8.969371 -1.906531,-8.969371zm3.813061,-3.033908c-1.049096,0 -1.906531,5.375514 -1.906531,12.003278c0,6.627764 0.847347,12.003278 1.906531,12.003278c1.049096,0 1.906531,-5.375514 1.906531,-12.003278c0,-6.627764 -0.857434,-12.003278 -1.906531,-12.003278zm3.802974,-20.382157c-1.049096,0 -1.906531,14.497598 -1.906531,32.395617c0,17.887837 0.847347,17.12427 1.906531,17.12427c1.049096,0 1.906531,0.773748 1.906531,-17.12427c0,-17.887837 -0.847347,-32.395617 -1.906531,-32.395617zm3.802974,3.532772c-1.049096,0 -1.906531,12.919559 -1.906531,28.852664c0,15.933105 0.857434,13.581318 1.906531,13.581318c1.049096,0 1.906531,2.351787 1.906531,-13.581318c0,-15.933105 -0.847347,-28.852664 -1.906531,-28.852664zm1.906531,28.852664c0,12.736303 0.847347,7.788387 1.906531,7.788387c1.049096,0 1.906531,4.947916 1.906531,-7.788387c0,-12.736303 -0.847347,-23.059733 -1.906531,-23.059733c-1.049096,0 -1.906531,10.32343 -1.906531,23.059733zm5.709504,-12.339248c-1.049096,0 -1.906531,5.528227 -1.906531,12.339248c0,6.811021 0.847347,12.339248 1.906531,12.339248c1.049096,0 1.906531,-5.528227 1.906531,-12.339248c0,-6.811021 -0.857434,-12.339248 -1.906531,-12.339248zm3.813061,2.38233c-1.049096,0 -1.906531,4.459233 -1.906531,9.956918c0,5.497685 0.847347,9.956918 1.906531,9.956918c1.049096,0 1.906531,-4.459233 1.906531,-9.956918c0,-5.497685 -0.847347,-9.956918 -1.906531,-9.956918zm3.802974,-2.04636c-1.049096,0 -1.906531,5.375514 -1.906531,12.003278c0,6.627764 0.847347,12.003278 1.906531,12.003278c1.049096,0 1.906531,-5.375514 1.906531,-12.003278c0,-6.627764 -0.847347,-12.003278 -1.906531,-12.003278zm1.906531,12.003278c0,14.477237 0.857434,10.934284 1.906531,10.934284c1.049096,0 1.906531,3.542952 1.906531,-10.934284c0,-14.477237 -0.847347,-26.205631 -1.906531,-26.205631c-1.049096,0 -1.906531,11.728394 -1.906531,26.205631zm5.709504,-31.061919c-1.049096,0 -1.906531,13.907106 -1.906531,31.061919c0,17.154813 0.847347,15.790572 1.906531,15.790572c1.049096,0 1.906531,1.36424 1.906531,-15.790572c0,-17.154813 -0.857434,-31.061919 -1.906531,-31.061919zm1.906531,31.061919c0,12.24762 0.847347,6.902649 1.906531,6.902649c1.049096,0 1.906531,5.344971 1.906531,-6.902649c0,-12.24762 -0.847347,-22.173995 -1.906531,-22.173995c-1.049096,0 -1.906531,9.926375 -1.906531,22.173995zm5.709504,-14.548503c-1.049096,0 -1.906531,6.515775 -1.906531,14.548503c0,8.032728 0.847347,14.548503 1.906531,14.548503c1.049096,0 1.906531,-6.515775 1.906531,-14.548503c0,-8.032728 -0.847347,-14.548503 -1.906531,-14.548503zm3.802974,4.917374c-1.049096,0 -1.906531,4.30652 -1.906531,9.631129c0,5.314429 0.847347,9.631129 1.906531,9.631129c1.049096,0 1.906531,-4.30652 1.906531,-9.631129c0,-5.314429 -0.847347,-9.631129 -1.906531,-9.631129zm3.813061,3.318973c-1.049096,0 -1.906531,2.83029 -1.906531,6.312157c0,3.492048 0.847347,6.312157 1.906531,6.312157c1.049096,0 1.906531,-2.83029 1.906531,-6.312157c0,-3.492048 -0.847347,-6.312157 -1.906531,-6.312157zm3.802974,-2.657214c-1.049096,0 -1.906531,4.011274 -1.906531,8.969371c0,4.947916 0.847347,8.969371 1.906531,8.969371c1.049096,0 1.906531,-4.011274 1.906531,-8.969371c0,-4.947916 -0.847347,-8.969371 -1.906531,-8.969371zm3.802974,-5.192258c-1.049096,0 -1.906531,6.342699 -1.906531,14.161629c0,7.818929 0.857434,14.161629 1.906531,14.161629c1.049096,0 1.906531,-6.342699 1.906531,-14.161629c0,-7.818929 -0.847347,-14.161629 -1.906531,-14.161629zm3.813061,7.849472c-1.049096,0 -1.906531,2.83029 -1.906531,6.312157c0,3.492048 0.847347,6.312157 1.906531,6.312157c1.049096,0 1.906531,-2.83029 1.906531,-6.312157c0,-3.492048 -0.847347,-6.312157 -1.906531,-6.312157zm1.906531,6.312157c0,14.232895 0.847347,10.486325 1.906531,10.486325c1.049096,0 1.906531,3.736389 1.906531,-10.486325c0,-14.232895 -0.847347,-25.757671 -1.906531,-25.757671c-1.049096,0 -1.906531,11.534957 -1.906531,25.757671zm3.802974,0c0,13.133358 0.847347,8.50105 1.906531,8.50105c1.049096,0 1.906531,4.632308 1.906531,-8.50105c0,-13.133358 -0.847347,-23.772396 -1.906531,-23.772396c-1.049096,0 -1.906531,10.639038 -1.906531,23.772396zm3.802974,0c0,9.804204 0.847347,17.755486 1.906531,17.755486c1.049096,0 1.906531,-7.951281 1.906531,-17.755486c0,-9.804204 -0.847347,-17.755486 -1.906531,-17.755486c-1.049096,0 -1.906531,7.951281 -1.906531,17.755486zm5.719592,-13.38788c-1.049096,0 -1.906531,5.996549 -1.906531,13.38788c0,7.391332 0.847347,13.38788 1.906531,13.38788c1.049096,0 1.906531,-5.996549 1.906531,-13.38788c0,-7.391332 -0.847347,-13.38788 -1.906531,-13.38788zm3.802974,3.756751c-1.049096,0 -1.906531,4.30652 -1.906531,9.631129c0,5.314429 0.847347,9.631129 1.906531,9.631129c1.049096,0 1.906531,-4.30652 1.906531,-9.631129c0,-5.314429 -0.857434,-9.631129 -1.906531,-9.631129zm3.802974,3.318973c-1.049096,0 -1.906531,2.83029 -1.906531,6.312157c0,3.492048 0.847347,6.312157 1.906531,6.312157c1.049096,0 1.906531,-2.83029 1.906531,-6.312157c0,-3.492048 -0.847347,-6.312157 -1.906531,-6.312157zm3.813061,1.873285c-1.049096,0 -1.906531,1.985275 -1.906531,4.438871c0,2.453596 0.847347,4.438871 1.906531,4.438871c1.049096,0 1.906531,-1.985275 1.906531,-4.438871c0,-2.453596 -0.847347,-4.438871 -1.906531,-4.438871zm3.802974,-1.374421c-1.049096,0 -1.906531,2.60631 -1.906531,5.813293c0,3.217164 0.847347,5.813293 1.906531,5.813293c1.049096,0 1.906531,-2.60631 1.906531,-5.813293c0,-3.217164 -0.847347,-5.813293 -1.906531,-5.813293zm3.813061,-1.608582c-1.049096,0 -1.906531,3.318973 -1.906531,7.421874c0,4.102902 0.847347,7.421874 1.906531,7.421874c1.049096,0 1.906531,-3.318973 1.906531,-7.421874c0,-4.102902 -0.847347,-7.421874 -1.906531,-7.421874zm3.802974,1.109718c-1.049096,0 -1.906531,2.83029 -1.906531,6.312157c0,3.492048 0.847347,6.312157 1.906531,6.312157c1.049096,0 1.906531,-2.83029 1.906531,-6.312157c0,-3.492048 -0.847347,-6.312157 -1.906531,-6.312157zm3.813061,-2.321245c-1.049096,0 -1.906531,3.868741 -1.906531,8.633401c0,4.76466 0.857434,8.633401 1.906531,8.633401c1.049096,0 1.906531,-3.868741 1.906531,-8.633401c0,-4.76466 -0.847347,-8.633401 -1.906531,-8.633401zm1.896443,8.633401c0,9.987461 0.847347,18.081274 1.906531,18.081274c1.049096,0 1.906531,-8.093814 1.906531,-18.081274c0,-9.987461 -0.847347,-18.081274 -1.906531,-18.081274c-1.049096,0 -1.906531,8.093814 -1.906531,18.081274zm3.813061,0c0,12.278163 0.847347,2.881194 1.906531,2.881194c1.049096,0 1.906531,9.396969 1.906531,-2.881194c0,-12.278163 -0.847347,-22.2249 -1.906531,-22.2249c-1.049096,0 -1.906531,9.946737 -1.906531,22.2249zm3.802974,0c0,14.568865 0.847347,7.024819 1.906531,7.024819c1.049096,0 1.906531,7.533864 1.906531,-7.024819c0,-14.568865 -0.857434,-26.368525 -1.906531,-26.368525c-1.049096,0 -1.906531,11.809841 -1.906531,26.368525zm5.709504,-30.074372c-1.049096,0 -1.906531,13.459147 -1.906531,30.074372c0,16.605044 0.847347,10.730666 1.906531,10.730666c1.049096,0 1.906531,5.884559 1.906531,-10.730666c0,-16.605044 -0.847347,-30.074372 -1.906531,-30.074372zm1.906531,30.074372c0,20.097092 0.847347,17.042823 1.906531,17.042823c1.049096,0 1.906531,3.054269 1.906531,-17.042823c0,-20.097092 -0.847347,-36.386528 -1.906531,-36.386528c-1.049096,0 -1.906531,16.289436 -1.906531,36.386528zm5.709504,-33.525696c-1.049096,0 -1.906531,15.006643 -1.906531,33.525696c0,18.519053 0.847347,14.181991 1.906531,14.181991c1.049096,0 1.906531,4.337062 1.906531,-14.181991c0,-18.519053 -0.847347,-33.525696 -1.906531,-33.525696zm1.906531,33.525696c0,11.239711 0.847347,1.007909 1.906531,1.007909c1.049096,0 1.906531,10.231802 1.906531,-1.007909c0,-11.239711 -0.847347,-20.351615 -1.906531,-20.351615c-1.049096,0 -1.906531,9.111903 -1.906531,20.351615zm5.709504,-6.312157c-1.049096,0 -1.906531,2.83029 -1.906531,6.312157c0,3.492048 0.847347,6.312157 1.906531,6.312157c1.049096,0 1.906531,-2.83029 1.906531,-6.312157c0,-3.492048 -0.847347,-6.312157 -1.906531,-6.312157zm3.802974,2.04636c-1.049096,0 -1.906531,1.914009 -1.906531,4.265796c0,2.361968 0.847347,4.265796 1.906531,4.265796c1.049096,0 1.906531,-1.914009 1.906531,-4.265796c0,-2.361968 -0.847347,-4.265796 -1.906531,-4.265796zm3.813061,-4.021455c-1.049096,0 -1.906531,3.716028 -1.906531,8.287251c0,4.581404 0.847347,8.287251 1.906531,8.287251c1.049096,0 1.906531,-3.716028 1.906531,-8.287251c0,-4.581404 -0.847347,-8.287251 -1.906531,-8.287251zm3.802974,3.848379c-1.049096,0 -1.906531,1.985275 -1.906531,4.438871c0,2.453596 0.847347,4.438871 1.906531,4.438871c1.049096,0 1.906531,-1.985275 1.906531,-4.438871c0,-2.453596 -0.847347,-4.438871 -1.906531,-4.438871zm3.813061,-9.610767c-1.049096,0 -1.906531,6.291795 -1.906531,14.049639c0,7.757844 0.857434,14.049639 1.906531,14.049639c1.049096,0 1.906531,-6.291795 1.906531,-14.049639c0,-7.757844 -0.847347,-14.049639 -1.906531,-14.049639zm1.896443,14.049639c0,14.446694 0.847347,14.945558 1.906531,14.945558c1.049096,0 1.906531,-0.509045 1.906531,-14.945558c0,-14.446694 -0.847347,-26.144545 -1.906531,-26.144545c-1.049096,0 -1.906531,11.708032 -1.906531,26.144545zm3.813061,0c0,19.934198 0.847347,13.693307 1.906531,13.693307c1.049096,0 1.906531,6.24089 1.906531,-13.693307c0,-19.934198 -0.847347,-36.091282 -1.906531,-36.091282c-1.049096,0 -1.906531,16.157085 -1.906531,36.091282zm5.709504,-6.312157c-1.049096,0 -1.906531,2.83029 -1.906531,6.312157c0,3.492048 0.847347,6.312157 1.906531,6.312157c1.049096,0 1.906531,-2.83029 1.906531,-6.312157c0,-3.492048 -0.847347,-6.312157 -1.906531,-6.312157zm3.802974,-2.891375c-1.049096,0 -1.906531,4.123264 -1.906531,9.203532c0,5.080268 0.847347,9.203532 1.906531,9.203532c1.049096,0 1.906531,-4.123264 1.906531,-9.203532c0,-5.080268 -0.847347,-9.203532 -1.906531,-9.203532zm3.813061,2.891375c-1.049096,0 -1.906531,2.83029 -1.906531,6.312157c0,3.492048 0.847347,6.312157 1.906531,6.312157c1.049096,0 1.906531,-2.83029 1.906531,-6.312157c0,-3.492048 -0.847347,-6.312157 -1.906531,-6.312157zm3.802974,-6.739754c-1.049096,0 -1.906531,5.843835 -1.906531,13.051911c0,7.208076 0.847347,13.051911 1.906531,13.051911c1.049096,0 1.906531,-5.843835 1.906531,-13.051911c0,-7.208076 -0.857434,-13.051911 -1.906531,-13.051911zm1.906531,13.051911c0,9.407149 0.847347,17.032642 1.906531,17.032642c1.049096,0 1.906531,-7.625492 1.906531,-17.032642c0,-9.407149 -0.847347,-17.032642 -1.906531,-17.032642c-1.049096,0 -1.906531,7.625492 -1.906531,17.032642zm3.802974,0c0,19.934198 0.847347,13.693307 1.906531,13.693307c1.049096,0 1.906531,6.24089 1.906531,-13.693307c0,-19.934198 -0.847347,-36.091282 -1.906531,-36.091282c-1.049096,0 -1.906531,16.157085 -1.906531,36.091282zm3.813061,0c0,20.321072 0.857434,14.395789 1.906531,14.395789c1.049096,0 1.906531,5.925282 1.906531,-14.395789c0,-20.321072 -0.847347,-36.793764 -1.906531,-36.793764c-1.049096,0 -1.906531,16.472692 -1.906531,36.793764zm3.802974,0c0,15.403698 0.847347,5.487504 1.906531,5.487504c1.049096,0 1.906531,9.916194 1.906531,-5.487504c0,-15.403698 -0.847347,-27.885479 -1.906531,-27.885479c-1.049096,0 -1.906531,12.481781 -1.906531,27.885479zm5.709504,-6.312157c-1.049096,0 -1.906531,2.83029 -1.906531,6.312157c0,3.492048 0.847347,6.312157 1.906531,6.312157c1.049096,0 1.906531,-2.83029 1.906531,-6.312157c0,-3.492048 -0.847347,-6.312157 -1.906531,-6.312157zm3.813061,-23.436427c-1.049096,0 -1.906531,13.316614 -1.906531,29.758764c0,16.431969 0.857434,7.360789 1.906531,7.360789c1.049096,0 1.906531,9.081361 1.906531,-7.360789c0,-16.431969 -0.847347,-29.758764 -1.906531,-29.758764zm1.896443,29.748583c0,13.275891 0.847347,12.838112 1.906531,12.838112c1.049096,0 1.906531,0.437779 1.906531,-12.838112c0,-13.275891 -0.847347,-24.037099 -1.906531,-24.037099c-1.049096,0 -1.906531,10.761209 -1.906531,24.037099zm3.813061,0c0,10.272526 0.847347,18.610681 1.906531,18.610681c1.049096,0 1.906531,-8.327974 1.906531,-18.610681c0,-10.272526 -0.847347,-18.610681 -1.906531,-18.610681c-1.049096,0 -1.906531,8.327974 -1.906531,18.610681zm5.709504,-14.548503c-1.049096,0 -1.906531,6.515775 -1.906531,14.548503c0,8.032728 0.847347,14.548503 1.906531,14.548503c1.049096,0 1.906531,-6.515775 1.906531,-14.548503c0,-8.032728 -0.847347,-14.548503 -1.906531,-14.548503zm1.906531,14.548503c0,20.799574 0.847347,15.271347 1.906531,15.271347c1.049096,0 1.906531,5.528227 1.906531,-15.271347c0,-20.799574 -0.847347,-37.669322 -1.906531,-37.669322c-1.049096,0 -1.906531,16.869748 -1.906531,37.669322zm3.802974,0c0,15.658221 0.847347,5.945644 1.906531,5.945644c1.049096,0 1.906531,9.702396 1.906531,-5.945644c0,-15.658221 -0.847347,-28.343619 -1.906531,-28.343619c-1.049096,0 -1.906531,12.695579 -1.906531,28.343619zm3.802974,0c0,12.35961 0.847347,11.178626 1.906531,11.178626c1.049096,0 1.906531,1.180984 1.906531,-11.178626c0,-12.35961 -0.847347,-22.377613 -1.906531,-22.377613c-1.049096,0 -1.906531,10.018003 -1.906531,22.377613zm5.719592,-28.883207c-1.049096,0 -1.906531,12.92974 -1.906531,28.883207c0,15.953467 0.847347,6.485232 1.906531,6.485232c1.049096,0 1.906531,9.468235 1.906531,-6.485232c0,-15.953467 -0.847347,-28.883207 -1.906531,-28.883207zm1.896443,28.883207c0,9.702396 0.847347,17.572229 1.906531,17.572229c1.049096,0 1.906531,-7.869834 1.906531,-17.572229c0,-9.702396 -0.847347,-17.572229 -1.906531,-17.572229c-1.049096,0 -1.906531,7.869834 -1.906531,17.572229zm5.709504,-11.188807c-1.049096,0 -1.906531,5.009002 -1.906531,11.188807c0,6.179805 0.857434,11.188807 1.906531,11.188807c1.049096,0 1.906531,-5.009002 1.906531,-11.188807c0,-6.179805 -0.847347,-11.188807 -1.906531,-11.188807zm3.813061,4.87665c-1.049096,0 -1.906531,2.83029 -1.906531,6.312157c0,3.492048 0.847347,6.312157 1.906531,6.312157c1.049096,0 1.906531,-2.83029 1.906531,-6.312157c0,-3.492048 -0.847347,-6.312157 -1.906531,-6.312157zm3.802974,1.048632c-1.049096,0 -1.906531,2.361968 -1.906531,5.263524c0,2.911737 0.847347,5.263524 1.906531,5.263524c1.049096,0 1.906531,-2.361968 1.906531,-5.263524c0,-2.911737 -0.857434,-5.263524 -1.906531,-5.263524zm-319.802858,1.109718c-1.049096,0 -1.906531,1.863104 -1.906531,4.163987c0,2.300883 0.847347,4.163987 1.906531,4.163987c1.049096,0 1.906531,-1.863104 1.906531,-4.163987c0,-2.300883 -0.847347,-4.163987 -1.906531,-4.163987z" class="shp0" id="waveform"/>
 </g>
</svg>