<svg xmlns="http://www.w3.org/2000/svg" viewBox="0 0 345 56" width="345" height="56">
	<style>
		tspan { white-space:pre }
		.shp0 { fill: #0fd559 } 
	</style>
	<path id="waveform" class="shp0" d="M1,55h343v-18h-343zM2.89,26.84c-1.04,0 -1.89,4.55 -1.89,10.16c0,5.61 0.84,10.16 1.89,10.16c1.04,0 1.89,-4.55 1.89,-10.16c0,-5.61 -0.84,-10.16 -1.89,-10.16zM6.66,26.84c-1.04,0 -1.89,4.55 -1.89,10.16c0,5.61 0.84,10.16 1.89,10.16c1.04,0 1.89,-4.55 1.89,-10.16c0,-5.61 -0.84,-10.16 -1.89,-10.16zM10.44,31.29c-1.04,0 -1.89,2.56 -1.89,5.71c0,3.16 0.84,5.71 1.89,5.71c1.04,0 1.89,-2.56 1.89,-5.71c0,-3.16 -0.84,-5.71 -1.89,-5.71zM21.3,30.8c-0.81,0 -1.49,1.67 -1.76,4.01c-0.3,-1.82 -0.95,-3.08 -1.71,-3.08c-0.79,0 -1.46,1.35 -1.74,3.27c-0.08,-11.79 -0.89,-21.05 -1.88,-21.05c-1.04,0 -1.89,10.32 -1.89,23.05c0,12.73 0.84,15.05 1.89,15.05c0.99,0 1.8,-1.26 1.88,-13.05c0.28,1.92 0.96,3.27 1.74,3.27c0.76,0 1.41,-1.27 1.71,-3.08c0.27,2.34 0.95,4.01 1.76,4.01c1.04,0 1.89,-2.78 1.89,-6.2c0,-3.43 -0.84,-6.2 -1.89,-6.2zM28.85,30.8c-1.04,0 -1.89,2.78 -1.89,6.2c0,3.43 0.84,6.2 1.89,6.2c1.04,0 1.89,-2.78 1.89,-6.2c0,-3.43 -0.84,-6.2 -1.89,-6.2zM32.63,27.76c-1.04,0 -1.89,4.14 -1.89,9.24c0,5.1 0.84,9.24 1.89,9.24c1.04,0 1.89,-4.14 1.89,-9.24c0,-5.1 -0.85,-9.24 -1.89,-9.24zM34.51,37c0,13.2 0.84,15.89 1.89,15.89c1.04,0 1.89,-2.7 1.89,-15.89c0,-13.2 -0.84,-23.89 -1.89,-23.89c-1.04,0 -1.89,10.7 -1.89,23.89zM38.29,37c0,10.41 0.84,10.85 1.89,10.85c1.04,0 1.89,-0.44 1.89,-10.85c0,-10.41 -0.84,-18.85 -1.89,-18.85c-1.04,0 -1.89,8.44 -1.89,18.85zM43.95,30.8c-1.04,0 -1.89,2.78 -1.89,6.2c0,3.43 0.84,6.2 1.89,6.2c1.04,0 1.89,-2.78 1.89,-6.2c0,-3.43 -0.84,-6.2 -1.89,-6.2zM47.72,24.78c-1.04,0 -1.89,5.47 -1.89,12.23c0,6.75 0.84,12.23 1.89,12.23c1.04,0 1.89,-5.47 1.89,-12.23c0,-6.75 -0.84,-12.23 -1.89,-12.23zM51.5,28.19c-1.04,0 -1.89,3.94 -1.89,8.81c0,4.86 0.84,8.81 1.89,8.81c1.04,0 1.89,-3.94 1.89,-8.81c0,-4.86 -0.85,-8.81 -1.89,-8.81zM55.27,22.82c-1.04,0 -1.89,6.35 -1.89,14.18c0,7.83 0.84,14.18 1.89,14.18c1.04,0 1.89,-6.35 1.89,-14.18c0,-7.83 -0.84,-14.18 -1.89,-14.18zM59.05,25.81c-1.04,0 -1.89,5.01 -1.89,11.2c0,6.18 0.84,11.2 1.89,11.2c1.04,0 1.89,-5.01 1.89,-11.2c0,-6.18 -0.84,-11.2 -1.89,-11.2zM62.82,31.23c-1.04,0 -1.89,2.58 -1.89,5.77c0,3.19 0.84,5.77 1.89,5.77c1.04,0 1.89,-2.58 1.89,-5.77c0,-3.19 -0.84,-5.77 -1.89,-5.77zM66.59,33.68c-1.04,0 -1.89,1.49 -1.89,3.33c0,1.84 0.84,3.33 1.89,3.33c1.04,0 1.89,-1.49 1.89,-3.33c0,-1.84 -0.84,-3.33 -1.89,-3.33zM70.37,30.8c-1.04,0 -1.89,2.78 -1.89,6.2c0,3.43 0.84,6.2 1.89,6.2c1.04,0 1.89,-2.78 1.89,-6.2c0,-3.43 -0.84,-6.2 -1.89,-6.2zM74.14,33.89c-1.04,0 -1.89,1.39 -1.89,3.11c0,1.72 0.84,3.11 1.89,3.11c1.04,0 1.89,-1.39 1.89,-3.11c0,-1.72 -0.84,-3.11 -1.89,-3.11zM77.92,26.78c-1.04,0 -1.89,4.57 -1.89,10.22c0,5.64 0.84,10.22 1.89,10.22c1.04,0 1.89,-4.57 1.89,-10.22c0,-5.64 -0.84,-10.22 -1.89,-10.22zM81.69,30.8c-1.04,0 -1.89,2.78 -1.89,6.2c0,3.43 0.84,6.2 1.89,6.2c1.04,0 1.89,-2.78 1.89,-6.2c0,-3.43 -0.84,-6.2 -1.89,-6.2zM85.47,29.14c-1.04,0 -1.89,3.52 -1.89,7.86c0,4.34 0.84,7.86 1.89,7.86c1.04,0 1.89,-3.52 1.89,-7.86c0,-4.34 -0.84,-7.86 -1.89,-7.86zM89.24,27.76c-1.04,0 -1.89,4.14 -1.89,9.24c0,5.1 0.84,9.24 1.89,9.24c1.04,0 1.89,-4.14 1.89,-9.24c0,-5.1 -0.84,-9.24 -1.89,-9.24zM93.01,23.53c-1.04,0 -1.89,6.03 -1.89,13.47c0,7.44 0.84,13.47 1.89,13.47c1.04,0 1.89,-6.03 1.89,-13.47c0,-7.44 -0.84,-13.47 -1.89,-13.47zM96.79,27.22c-1.04,0 -1.89,4.38 -1.89,9.78c0,5.4 0.84,9.78 1.89,9.78c1.04,0 1.89,-4.38 1.89,-9.78c0,-5.4 -0.85,-9.78 -1.89,-9.78zM100.56,23.09c-1.04,0 -1.89,6.23 -1.89,13.91c0,7.68 0.85,13.91 1.89,13.91c1.04,0 1.89,-6.23 1.89,-13.91c0,-7.68 -0.84,-13.91 -1.89,-13.91zM104.34,31.34c-1.04,0 -1.89,2.53 -1.89,5.66c0,3.13 0.84,5.66 1.89,5.66c1.04,0 1.89,-2.53 1.89,-5.66c0,-3.13 -0.84,-5.66 -1.89,-5.66zM108.11,28.19c-1.04,0 -1.89,3.94 -1.89,8.81c0,4.86 0.84,8.81 1.89,8.81c1.04,0 1.89,-3.94 1.89,-8.81c0,-4.86 -0.84,-8.81 -1.89,-8.81zM111.89,25.21c-1.04,0 -1.89,5.28 -1.89,11.79c0,6.51 0.84,11.79 1.89,11.79c1.04,0 1.89,-5.28 1.89,-11.79c0,-6.51 -0.85,-11.79 -1.89,-11.79zM115.66,5.19c-1.04,0 -1.89,14.24 -1.89,31.82c0,17.57 0.84,16.82 1.89,16.82c1.04,0 1.89,0.76 1.89,-16.82c0,-17.57 -0.84,-31.82 -1.89,-31.82zM119.43,8.66c-1.04,0 -1.89,12.69 -1.89,28.34c0,15.65 0.85,13.34 1.89,13.34c1.04,0 1.89,2.31 1.89,-13.34c0,-15.65 -0.84,-28.34 -1.89,-28.34zM121.32,37c0,12.51 0.84,7.65 1.89,7.65c1.04,0 1.89,4.86 1.89,-7.65c0,-12.51 -0.84,-22.65 -1.89,-22.65c-1.04,0 -1.89,10.14 -1.89,22.65zM126.98,24.88c-1.04,0 -1.89,5.43 -1.89,12.12c0,6.69 0.84,12.12 1.89,12.12c1.04,0 1.89,-5.43 1.89,-12.12c0,-6.69 -0.85,-12.12 -1.89,-12.12zM130.76,27.22c-1.04,0 -1.89,4.38 -1.89,9.78c0,5.4 0.84,9.78 1.89,9.78c1.04,0 1.89,-4.38 1.89,-9.78c0,-5.4 -0.84,-9.78 -1.89,-9.78zM134.53,25.21c-1.04,0 -1.89,5.28 -1.89,11.79c0,6.51 0.84,11.79 1.89,11.79c1.04,0 1.89,-5.28 1.89,-11.79c0,-6.51 -0.84,-11.79 -1.89,-11.79zM136.42,37c0,14.22 0.85,10.74 1.89,10.74c1.04,0 1.89,3.48 1.89,-10.74c0,-14.22 -0.84,-25.74 -1.89,-25.74c-1.04,0 -1.89,11.52 -1.89,25.74zM142.08,6.49c-1.04,0 -1.89,13.66 -1.89,30.51c0,16.85 0.84,15.51 1.89,15.51c1.04,0 1.89,1.34 1.89,-15.51c0,-16.85 -0.85,-30.51 -1.89,-30.51zM143.97,37c0,12.03 0.84,6.78 1.89,6.78c1.04,0 1.89,5.25 1.89,-6.78c0,-12.03 -0.84,-21.78 -1.89,-21.78c-1.04,0 -1.89,9.75 -1.89,21.78zM149.63,22.71c-1.04,0 -1.89,6.4 -1.89,14.29c0,7.89 0.84,14.29 1.89,14.29c1.04,0 1.89,-6.4 1.89,-14.29c0,-7.89 -0.84,-14.29 -1.89,-14.29zM153.4,27.54c-1.04,0 -1.89,4.23 -1.89,9.46c0,5.22 0.84,9.46 1.89,9.46c1.04,0 1.89,-4.23 1.89,-9.46c0,-5.22 -0.84,-9.46 -1.89,-9.46zM157.18,30.8c-1.04,0 -1.89,2.78 -1.89,6.2c0,3.43 0.84,6.2 1.89,6.2c1.04,0 1.89,-2.78 1.89,-6.2c0,-3.43 -0.84,-6.2 -1.89,-6.2zM160.95,28.19c-1.04,0 -1.89,3.94 -1.89,8.81c0,4.86 0.84,8.81 1.89,8.81c1.04,0 1.89,-3.94 1.89,-8.81c0,-4.86 -0.84,-8.81 -1.89,-8.81zM164.72,23.09c-1.04,0 -1.89,6.23 -1.89,13.91c0,7.68 0.85,13.91 1.89,13.91c1.04,0 1.89,-6.23 1.89,-13.91c0,-7.68 -0.84,-13.91 -1.89,-13.91zM168.5,30.8c-1.04,0 -1.89,2.78 -1.89,6.2c0,3.43 0.84,6.2 1.89,6.2c1.04,0 1.89,-2.78 1.89,-6.2c0,-3.43 -0.84,-6.2 -1.89,-6.2zM170.39,37c0,13.98 0.84,10.3 1.89,10.3c1.04,0 1.89,3.67 1.89,-10.3c0,-13.98 -0.84,-25.3 -1.89,-25.3c-1.04,0 -1.89,11.33 -1.89,25.3zM174.16,37c0,12.9 0.84,8.35 1.89,8.35c1.04,0 1.89,4.55 1.89,-8.35c0,-12.9 -0.84,-23.35 -1.89,-23.35c-1.04,0 -1.89,10.45 -1.89,23.35zM177.93,37c0,9.63 0.84,17.44 1.89,17.44c1.04,0 1.89,-7.81 1.89,-17.44c0,-9.63 -0.84,-17.44 -1.89,-17.44c-1.04,0 -1.89,7.81 -1.89,17.44zM183.6,23.85c-1.04,0 -1.89,5.89 -1.89,13.15c0,7.26 0.84,13.15 1.89,13.15c1.04,0 1.89,-5.89 1.89,-13.15c0,-7.26 -0.84,-13.15 -1.89,-13.15zM187.37,27.54c-1.04,0 -1.89,4.23 -1.89,9.46c0,5.22 0.84,9.46 1.89,9.46c1.04,0 1.89,-4.23 1.89,-9.46c0,-5.22 -0.85,-9.46 -1.89,-9.46zM191.14,30.8c-1.04,0 -1.89,2.78 -1.89,6.2c0,3.43 0.84,6.2 1.89,6.2c1.04,0 1.89,-2.78 1.89,-6.2c0,-3.43 -0.84,-6.2 -1.89,-6.2zM194.92,32.64c-1.04,0 -1.89,1.95 -1.89,4.36c0,2.41 0.84,4.36 1.89,4.36c1.04,0 1.89,-1.95 1.89,-4.36c0,-2.41 -0.84,-4.36 -1.89,-4.36zM198.69,31.29c-1.04,0 -1.89,2.56 -1.89,5.71c0,3.16 0.84,5.71 1.89,5.71c1.04,0 1.89,-2.56 1.89,-5.71c0,-3.16 -0.84,-5.71 -1.89,-5.71zM202.47,29.71c-1.04,0 -1.89,3.26 -1.89,7.29c0,4.03 0.84,7.29 1.89,7.29c1.04,0 1.89,-3.26 1.89,-7.29c0,-4.03 -0.84,-7.29 -1.89,-7.29zM206.24,30.8c-1.04,0 -1.89,2.78 -1.89,6.2c0,3.43 0.84,6.2 1.89,6.2c1.04,0 1.89,-2.78 1.89,-6.2c0,-3.43 -0.84,-6.2 -1.89,-6.2zM210.02,28.52c-1.04,0 -1.89,3.8 -1.89,8.48c0,4.68 0.85,8.48 1.89,8.48c1.04,0 1.89,-3.8 1.89,-8.48c0,-4.68 -0.84,-8.48 -1.89,-8.48zM211.9,37c0,9.81 0.84,17.76 1.89,17.76c1.04,0 1.89,-7.95 1.89,-17.76c0,-9.81 -0.84,-17.76 -1.89,-17.76c-1.04,0 -1.89,7.95 -1.89,17.76zM215.68,37c0,12.06 0.84,2.83 1.89,2.83c1.04,0 1.89,9.23 1.89,-2.83c0,-12.06 -0.84,-21.83 -1.89,-21.83c-1.04,0 -1.89,9.77 -1.89,21.83zM219.45,37c0,14.31 0.84,6.9 1.89,6.9c1.04,0 1.89,7.4 1.89,-6.9c0,-14.31 -0.85,-25.9 -1.89,-25.9c-1.04,0 -1.89,11.6 -1.89,25.9zM225.11,7.46c-1.04,0 -1.89,13.22 -1.89,29.54c0,16.31 0.84,10.54 1.89,10.54c1.04,0 1.89,5.78 1.89,-10.54c0,-16.31 -0.84,-29.54 -1.89,-29.54zM227,37c0,19.74 0.84,16.74 1.89,16.74c1.04,0 1.89,3 1.89,-16.74c0,-19.74 -0.84,-35.74 -1.89,-35.74c-1.04,0 -1.89,16 -1.89,35.74zM232.66,4.07c-1.04,0 -1.89,14.74 -1.89,32.93c0,18.19 0.84,13.93 1.89,13.93c1.04,0 1.89,4.26 1.89,-13.93c0,-18.19 -0.84,-32.93 -1.89,-32.93zM234.55,37c0,11.04 0.84,0.99 1.89,0.99c1.04,0 1.89,10.05 1.89,-0.99c0,-11.04 -0.84,-19.99 -1.89,-19.99c-1.04,0 -1.89,8.95 -1.89,19.99zM240.21,30.8c-1.04,0 -1.89,2.78 -1.89,6.2c0,3.43 0.84,6.2 1.89,6.2c1.04,0 1.89,-2.78 1.89,-6.2c0,-3.43 -0.84,-6.2 -1.89,-6.2zM243.98,32.81c-1.04,0 -1.89,1.88 -1.89,4.19c0,2.32 0.84,4.19 1.89,4.19c1.04,0 1.89,-1.88 1.89,-4.19c0,-2.32 -0.84,-4.19 -1.89,-4.19zM247.76,28.86c-1.04,0 -1.89,3.65 -1.89,8.14c0,4.5 0.84,8.14 1.89,8.14c1.04,0 1.89,-3.65 1.89,-8.14c0,-4.5 -0.84,-8.14 -1.89,-8.14zM251.53,32.64c-1.04,0 -1.89,1.95 -1.89,4.36c0,2.41 0.84,4.36 1.89,4.36c1.04,0 1.89,-1.95 1.89,-4.36c0,-2.41 -0.84,-4.36 -1.89,-4.36zM255.31,23.2c-1.04,0 -1.89,6.18 -1.89,13.8c0,7.62 0.85,13.8 1.89,13.8c1.04,0 1.89,-6.18 1.89,-13.8c0,-7.62 -0.84,-13.8 -1.89,-13.8zM257.19,37c0,14.19 0.84,14.68 1.89,14.68c1.04,0 1.89,-0.5 1.89,-14.68c0,-14.19 -0.84,-25.68 -1.89,-25.68c-1.04,0 -1.89,11.5 -1.89,25.68zM260.97,37c0,19.58 0.84,13.45 1.89,13.45c1.04,0 1.89,6.13 1.89,-13.45c0,-19.58 -0.84,-35.45 -1.89,-35.45c-1.04,0 -1.89,15.87 -1.89,35.45zM266.63,30.8c-1.04,0 -1.89,2.78 -1.89,6.2c0,3.43 0.84,6.2 1.89,6.2c1.04,0 1.89,-2.78 1.89,-6.2c0,-3.43 -0.84,-6.2 -1.89,-6.2zM270.4,27.96c-1.04,0 -1.89,4.05 -1.89,9.04c0,4.99 0.84,9.04 1.89,9.04c1.04,0 1.89,-4.05 1.89,-9.04c0,-4.99 -0.84,-9.04 -1.89,-9.04zM274.18,30.8c-1.04,0 -1.89,2.78 -1.89,6.2c0,3.43 0.84,6.2 1.89,6.2c1.04,0 1.89,-2.78 1.89,-6.2c0,-3.43 -0.84,-6.2 -1.89,-6.2zM277.95,24.18c-1.04,0 -1.89,5.74 -1.89,12.82c0,7.08 0.84,12.82 1.89,12.82c1.04,0 1.89,-5.74 1.89,-12.82c0,-7.08 -0.85,-12.82 -1.89,-12.82zM279.84,37c0,9.24 0.84,16.73 1.89,16.73c1.04,0 1.89,-7.49 1.89,-16.73c0,-9.24 -0.84,-16.73 -1.89,-16.73c-1.04,0 -1.89,7.49 -1.89,16.73zM283.61,37c0,19.58 0.84,13.45 1.89,13.45c1.04,0 1.89,6.13 1.89,-13.45c0,-19.58 -0.84,-35.45 -1.89,-35.45c-1.04,0 -1.89,15.87 -1.89,35.45zM287.39,37c0,19.96 0.85,14.14 1.89,14.14c1.04,0 1.89,5.82 1.89,-14.14c0,-19.96 -0.84,-36.14 -1.89,-36.14c-1.04,0 -1.89,16.18 -1.89,36.14zM291.16,37c0,15.13 0.84,5.39 1.89,5.39c1.04,0 1.89,9.74 1.89,-5.39c0,-15.13 -0.84,-27.39 -1.89,-27.39c-1.04,0 -1.89,12.26 -1.89,27.39zM296.82,30.8c-1.04,0 -1.89,2.78 -1.89,6.2c0,3.43 0.84,6.2 1.89,6.2c1.04,0 1.89,-2.78 1.89,-6.2c0,-3.43 -0.84,-6.2 -1.89,-6.2zM300.6,7.78c-1.04,0 -1.89,13.08 -1.89,29.23c0,16.14 0.85,7.23 1.89,7.23c1.04,0 1.89,8.92 1.89,-7.23c0,-16.14 -0.84,-29.23 -1.89,-29.23zM302.48,37c0,13.04 0.84,12.61 1.89,12.61c1.04,0 1.89,0.43 1.89,-12.61c0,-13.04 -0.84,-23.61 -1.89,-23.61c-1.04,0 -1.89,10.57 -1.89,23.61zM306.26,37c0,10.09 0.84,18.28 1.89,18.28c1.04,0 1.89,-8.18 1.89,-18.28c0,-10.09 -0.84,-18.28 -1.89,-18.28c-1.04,0 -1.89,8.18 -1.89,18.28zM311.92,22.71c-1.04,0 -1.89,6.4 -1.89,14.29c0,7.89 0.84,14.29 1.89,14.29c1.04,0 1.89,-6.4 1.89,-14.29c0,-7.89 -0.84,-14.29 -1.89,-14.29zM313.81,37c0,20.43 0.84,15 1.89,15c1.04,0 1.89,5.43 1.89,-15c0,-20.43 -0.84,-37 -1.89,-37c-1.04,0 -1.89,16.57 -1.89,37zM317.58,37c0,15.38 0.84,5.84 1.89,5.84c1.04,0 1.89,9.53 1.89,-5.84c0,-15.38 -0.84,-27.84 -1.89,-27.84c-1.04,0 -1.89,12.47 -1.89,27.84zM321.35,37c0,12.14 0.84,10.98 1.89,10.98c1.04,0 1.89,1.16 1.89,-10.98c0,-12.14 -0.84,-21.98 -1.89,-21.98c-1.04,0 -1.89,9.84 -1.89,21.98zM327.02,8.63c-1.04,0 -1.89,12.7 -1.89,28.37c0,15.67 0.84,6.37 1.89,6.37c1.04,0 1.89,9.3 1.89,-6.37c0,-15.67 -0.84,-28.37 -1.89,-28.37zM328.9,37c0,9.53 0.84,17.26 1.89,17.26c1.04,0 1.89,-7.73 1.89,-17.26c0,-9.53 -0.84,-17.26 -1.89,-17.26c-1.04,0 -1.89,7.73 -1.89,17.26zM334.56,26.01c-1.04,0 -1.89,4.92 -1.89,10.99c0,6.07 0.85,10.99 1.89,10.99c1.04,0 1.89,-4.92 1.89,-10.99c0,-6.07 -0.84,-10.99 -1.89,-10.99zM338.34,30.8c-1.04,0 -1.89,2.78 -1.89,6.2c0,3.43 0.84,6.2 1.89,6.2c1.04,0 1.89,-2.78 1.89,-6.2c0,-3.43 -0.84,-6.2 -1.89,-6.2zM342.11,31.83c-1.04,0 -1.89,2.32 -1.89,5.17c0,2.86 0.84,5.17 1.89,5.17c1.04,0 1.89,-2.32 1.89,-5.17c0,-2.86 -0.85,-5.17 -1.89,-5.17zM25.08,32.92c-1.04,0 -1.89,1.83 -1.89,4.09c0,2.26 0.84,4.09 1.89,4.09c1.04,0 1.89,-1.83 1.89,-4.09c0,-2.26 -0.84,-4.09 -1.89,-4.09z" />
</svg>